<svg width="290" height="29" viewBox="0 0 290 29" fill="none" xmlns="http://www.w3.org/2000/svg">
<path d="M181.007 3.22156V4.83437V6.44335V8.05617V9.66515V11.278V12.8869V14.4998V16.1087V17.7216V19.3305V20.9433V22.5562L179.367 20.9433L177.731 19.3305L176.091 17.7216L174.454 16.1087L172.814 14.4998L171.174 12.8869L169.538 11.278L167.898 9.66515L166.261 8.05617L164.621 6.44335L162.985 4.83437L161.345 3.22156H159.709H158.068V4.83437V6.44335V8.05617V9.66515V11.278V12.8869V14.4998V16.1087V17.7216V19.3305V20.9433V22.5562V24.1651V25.778V27.3869V28.9998H159.709H161.345V27.3869V25.778V24.1651V22.5562V20.9433V19.3305V17.7216V16.1087V14.4998V12.8869V11.278V9.66515V8.05617L162.985 9.66515L164.621 11.278L166.261 12.8869L167.898 14.4998L169.538 16.1087L171.174 17.7216L172.814 19.3305L174.454 20.9433L176.091 22.5562L177.731 24.1651L179.367 25.778L181.007 27.3869L182.643 28.9998H184.283V27.3869V25.778V24.1651V22.5562V20.9433V19.3305V17.7216V16.1087V14.4998V12.8869V11.278V9.66515V8.05617V6.44335V4.83437V3.22156H182.643H181.007Z" fill="white"/>
<path d="M233.757 12.8908H230.481V3.22156H210.822V28.9998H237.041V12.8716H233.765L233.757 12.8908ZM214.099 11.278V6.43567H227.204V12.8831H214.099V11.278ZM233.757 17.7216V25.7856H214.099V16.1126H233.757V17.7216Z" fill="white"/>
<path d="M288.125 12.891H283.212V3.2218H263.55V0H260.273V3.2218H263.55V29H289.761V12.8718L288.125 12.891ZM266.826 11.2782V6.43591H279.936V12.8833H266.826V11.2782ZM286.489 17.7218V25.7859H266.826V16.1128H286.489V17.7218Z" fill="white"/>
<path d="M128.476 3.22156H128.468H126.836H125.199H123.559H121.923H120.283H118.647H117.006H115.37H113.73H112.094H110.454H108.814H107.177H105.537V4.83437V6.44335V8.05617V9.66515V11.278V12.8869V14.4998V16.1087V17.7216V19.3305V20.9433V22.5562V24.1651V25.778V27.3869V28.9998H107.177H108.814H110.454H112.094H113.73H115.37H117.006H118.647H120.283H121.923H123.559H125.199H126.836H128.468H128.476H130.108H131.744V27.3869V25.778H130.108H128.476H128.468H126.836H125.199H123.559H121.923H120.283H118.647H117.006H115.37H113.73H112.094H110.454H108.814V24.1651V22.5562V20.9433V19.3305H110.454H112.094H113.73H115.37H117.006H118.647H120.283H121.923H123.551H123.559H125.192H126.828H128.468V17.7216V16.1087H126.828H125.192H123.559H123.551H121.923H120.283H118.647H117.006H115.37H113.73H112.094H110.454H108.814V14.4998V12.8869V11.278V9.66515V8.05617V6.44335H110.454H112.094H113.73H115.37H117.006H118.647H120.283H121.923H123.559H125.199H126.836H128.468H128.476H130.108H131.744V4.83437V3.22156H130.108H128.476Z" fill="white"/>
<path d="M22.9348 3.22157H0V28.9998H26.2151V3.22157H22.9387H22.9348ZM22.9348 8.05617V25.778H3.27245V6.43569H22.9348V8.05617Z" fill="white"/>
<path d="M75.7356 3.2216H52.8008V28.9998H56.0772V19.3344H79.012V3.20624H75.7356V3.2216ZM75.7356 8.0562V16.1203H56.0772V6.43571H75.7356V8.0562Z" fill="white"/>
</svg>

